<svg width="388" height="248" viewBox="0 0 388 248" fill="none" xmlns="http://www.w3.org/2000/svg">
<path d="M267.558 0.838566H125.91V16.7578H143.057L169.307 93.8311C170.356 96.8995 172.261 99.5502 174.767 101.425C177.272 103.3 180.256 104.308 183.315 104.314H245.193V88.3946H183.315L177.888 72.4753H245.193C248.175 72.4753 250.874 70.5809 252.044 67.6518L274.41 11.9343C274.9 10.7239 275.1 9.40234 274.992 8.08875C274.884 6.77515 274.472 5.51088 273.792 4.40996C273.112 3.30904 272.186 2.40612 271.098 1.78263C270.01 1.15914 268.793 0.834695 267.558 0.838566Z" fill="#3DC215"/>
<path d="M189.279 136.152C195.455 136.152 200.462 130.807 200.462 124.213C200.462 117.619 195.455 112.274 189.279 112.274C183.103 112.274 178.096 117.619 178.096 124.213C178.096 130.807 183.103 136.152 189.279 136.152Z" fill="#3DC215"/>
<path d="M234.01 136.152C240.186 136.152 245.193 130.807 245.193 124.213C245.193 117.619 240.186 112.274 234.01 112.274C227.834 112.274 222.827 117.619 222.827 124.213C222.827 130.807 227.834 136.152 234.01 136.152Z" fill="#3DC215"/>
<path d="M27.1455 185.62L12.2568 231H0.263184L20.6035 176.258H28.2358L27.1455 185.62ZM39.5151 231L24.5889 185.62L23.3857 176.258H31.0933L51.5464 231H39.5151ZM38.8384 210.622V219.458H9.92578V210.622H38.8384Z" fill="#3DC215"/>
<path d="M81.6997 190.319H91.5127V229.646C91.5127 233.356 90.6855 236.502 89.0312 239.083C87.402 241.69 85.1211 243.658 82.1885 244.986C79.2559 246.34 75.847 247.017 71.9619 247.017C70.2575 247.017 68.4528 246.791 66.5479 246.34C64.668 245.889 62.8633 245.187 61.1338 244.234C59.4294 243.282 58.0007 242.079 56.8477 240.625L61.6226 234.233C62.8758 235.687 64.3296 236.815 65.9839 237.617C67.6382 238.444 69.4679 238.858 71.4731 238.858C73.4282 238.858 75.0825 238.494 76.436 237.768C77.7896 237.066 78.8298 236.026 79.5566 234.647C80.2835 233.293 80.647 231.652 80.647 229.722V199.719L81.6997 190.319ZM54.3286 211.148V210.359C54.3286 207.251 54.7046 204.431 55.4565 201.899C56.2336 199.343 57.3239 197.15 58.7275 195.32C60.1562 193.49 61.8857 192.074 63.916 191.071C65.9463 190.069 68.2397 189.567 70.7964 189.567C73.5034 189.567 75.7718 190.069 77.6016 191.071C79.4313 192.074 80.9352 193.503 82.1133 195.357C83.2913 197.187 84.2062 199.355 84.8579 201.862C85.5347 204.343 86.061 207.063 86.437 210.021V211.75C86.061 214.582 85.4971 217.214 84.7451 219.646C83.9932 222.077 83.0031 224.207 81.7749 226.037C80.5467 227.842 79.0177 229.245 77.188 230.248C75.3833 231.251 73.2277 231.752 70.7212 231.752C68.2147 231.752 65.9463 231.238 63.916 230.21C61.9108 229.183 60.1938 227.742 58.7651 225.887C57.3364 224.032 56.2336 221.851 55.4565 219.345C54.7046 216.838 54.3286 214.106 54.3286 211.148ZM65.1567 210.359V211.148C65.1567 212.828 65.3197 214.394 65.6455 215.848C65.9714 217.302 66.4727 218.593 67.1494 219.721C67.8512 220.824 68.716 221.688 69.7437 222.315C70.7964 222.917 72.0371 223.217 73.4658 223.217C75.446 223.217 77.0627 222.804 78.3159 221.977C79.5692 221.124 80.5091 219.959 81.1357 218.48C81.7624 217.001 82.1258 215.297 82.2261 213.367V208.441C82.1759 206.862 81.9629 205.446 81.5869 204.193C81.2109 202.915 80.6846 201.824 80.0078 200.922C79.3311 200.02 78.4538 199.318 77.376 198.816C76.2982 198.315 75.0199 198.064 73.541 198.064C72.1123 198.064 70.8716 198.39 69.8188 199.042C68.7912 199.669 67.9264 200.533 67.2246 201.636C66.5479 202.739 66.034 204.042 65.6831 205.546C65.3322 207.025 65.1567 208.629 65.1567 210.359Z" fill="#3DC215"/>
<path d="M110.763 199.192V231H99.9346V190.319H110.124L110.763 199.192ZM123.02 190.056L122.832 200.095C122.305 200.02 121.666 199.957 120.914 199.907C120.187 199.832 119.523 199.794 118.921 199.794C117.392 199.794 116.064 199.994 114.936 200.396C113.833 200.771 112.906 201.335 112.154 202.087C111.427 202.839 110.875 203.754 110.5 204.832C110.149 205.91 109.948 207.138 109.898 208.517L107.717 207.84C107.717 205.208 107.98 202.789 108.507 200.583C109.033 198.353 109.798 196.41 110.8 194.756C111.828 193.102 113.081 191.823 114.56 190.921C116.039 190.019 117.731 189.567 119.636 189.567C120.237 189.567 120.851 189.618 121.478 189.718C122.105 189.793 122.618 189.906 123.02 190.056Z" fill="#3DC215"/>
<path d="M139.562 190.319V231H128.697V190.319H139.562ZM128.02 179.717C128.02 178.138 128.571 176.834 129.674 175.807C130.777 174.779 132.256 174.265 134.111 174.265C135.941 174.265 137.407 174.779 138.51 175.807C139.638 176.834 140.202 178.138 140.202 179.717C140.202 181.296 139.638 182.599 138.51 183.627C137.407 184.655 135.941 185.168 134.111 185.168C132.256 185.168 130.777 184.655 129.674 183.627C128.571 182.599 128.02 181.296 128.02 179.717Z" fill="#3DC215"/>
<path d="M154.338 176.258H163.888L177.95 216.45L192.011 176.258H201.561L181.785 231H174.115L154.338 176.258ZM149.188 176.258H158.7L160.429 215.435V231H149.188V176.258ZM197.2 176.258H206.75V231H195.47V215.435L197.2 176.258Z" fill="#3DC215"/>
<path d="M237.918 221.826V203.704C237.918 202.401 237.705 201.285 237.279 200.358C236.853 199.405 236.188 198.666 235.286 198.14C234.409 197.613 233.268 197.35 231.865 197.35C230.662 197.35 229.621 197.563 228.744 197.989C227.867 198.39 227.19 198.979 226.714 199.756C226.238 200.508 226 201.398 226 202.426H215.171C215.171 200.696 215.572 199.055 216.375 197.5C217.177 195.946 218.342 194.58 219.871 193.402C221.4 192.199 223.217 191.259 225.323 190.583C227.453 189.906 229.834 189.567 232.466 189.567C235.625 189.567 238.432 190.094 240.888 191.146C243.345 192.199 245.275 193.778 246.678 195.884C248.107 197.989 248.821 200.621 248.821 203.779V221.187C248.821 223.418 248.959 225.248 249.235 226.676C249.511 228.08 249.912 229.308 250.438 230.361V231H239.497C238.971 229.897 238.57 228.519 238.294 226.864C238.043 225.185 237.918 223.506 237.918 221.826ZM239.347 206.223L239.422 212.352H233.369C231.94 212.352 230.699 212.514 229.646 212.84C228.594 213.166 227.729 213.63 227.052 214.231C226.375 214.808 225.874 215.485 225.548 216.262C225.248 217.039 225.097 217.891 225.097 218.818C225.097 219.746 225.31 220.585 225.736 221.337C226.162 222.064 226.777 222.641 227.579 223.067C228.381 223.468 229.321 223.668 230.398 223.668C232.028 223.668 233.444 223.343 234.647 222.691C235.85 222.039 236.778 221.237 237.429 220.285C238.106 219.332 238.457 218.43 238.482 217.578L241.339 222.165C240.938 223.192 240.387 224.257 239.685 225.36C239.008 226.463 238.144 227.503 237.091 228.481C236.038 229.433 234.772 230.223 233.293 230.85C231.815 231.451 230.06 231.752 228.03 231.752C225.448 231.752 223.104 231.238 220.999 230.21C218.919 229.158 217.264 227.716 216.036 225.887C214.833 224.032 214.231 221.926 214.231 219.57C214.231 217.44 214.632 215.547 215.435 213.893C216.237 212.239 217.415 210.848 218.969 209.72C220.548 208.567 222.515 207.702 224.872 207.125C227.228 206.524 229.96 206.223 233.068 206.223H239.347Z" fill="#3DC215"/>
<path d="M267.996 199.192V231H257.168V190.319H267.357L267.996 199.192ZM280.253 190.056L280.065 200.095C279.539 200.02 278.899 199.957 278.147 199.907C277.421 199.832 276.756 199.794 276.155 199.794C274.626 199.794 273.297 199.994 272.169 200.396C271.067 200.771 270.139 201.335 269.387 202.087C268.66 202.839 268.109 203.754 267.733 204.832C267.382 205.91 267.181 207.138 267.131 208.517L264.951 207.84C264.951 205.208 265.214 202.789 265.74 200.583C266.267 198.353 267.031 196.41 268.034 194.756C269.061 193.102 270.315 191.823 271.793 190.921C273.272 190.019 274.964 189.567 276.869 189.567C277.471 189.567 278.085 189.618 278.711 189.718C279.338 189.793 279.852 189.906 280.253 190.056Z" fill="#3DC215"/>
<path d="M296.194 173.212V231H285.366V173.212H296.194ZM321.836 190.319L304.165 210.472L294.69 220.059L290.743 212.239L298.262 202.689L308.827 190.319H321.836ZM310.594 231L298.563 212.201L306.045 205.659L323.077 231H310.594Z" fill="#3DC215"/>
<path d="M344.47 231.752C341.312 231.752 338.479 231.251 335.973 230.248C333.466 229.22 331.336 227.804 329.581 226C327.852 224.195 326.523 222.102 325.596 219.721C324.668 217.314 324.205 214.758 324.205 212.051V210.547C324.205 207.464 324.643 204.644 325.521 202.087C326.398 199.531 327.651 197.312 329.28 195.433C330.935 193.553 332.94 192.111 335.296 191.109C337.652 190.081 340.309 189.567 343.267 189.567C346.149 189.567 348.706 190.044 350.937 190.996C353.167 191.949 355.035 193.302 356.539 195.057C358.068 196.811 359.221 198.917 359.998 201.373C360.775 203.804 361.163 206.511 361.163 209.494V214.006H328.829V206.787H350.523V205.96C350.523 204.456 350.247 203.115 349.696 201.937C349.169 200.734 348.367 199.781 347.29 199.08C346.212 198.378 344.833 198.027 343.154 198.027C341.725 198.027 340.497 198.34 339.469 198.967C338.442 199.593 337.602 200.471 336.95 201.599C336.324 202.727 335.847 204.055 335.521 205.584C335.221 207.088 335.07 208.742 335.07 210.547V212.051C335.07 213.68 335.296 215.184 335.747 216.562C336.223 217.941 336.888 219.132 337.74 220.134C338.617 221.137 339.67 221.914 340.898 222.465C342.151 223.017 343.567 223.292 345.146 223.292C347.102 223.292 348.919 222.917 350.598 222.165C352.303 221.388 353.769 220.222 354.997 218.668L360.261 224.383C359.409 225.611 358.243 226.789 356.764 227.917C355.31 229.045 353.556 229.972 351.5 230.699C349.445 231.401 347.102 231.752 344.47 231.752Z" fill="#3DC215"/>
<path d="M387.256 190.319V197.989H363.569V190.319H387.256ZM369.435 180.281H380.263V218.743C380.263 219.921 380.413 220.824 380.714 221.45C381.04 222.077 381.516 222.515 382.143 222.766C382.769 222.992 383.559 223.104 384.511 223.104C385.188 223.104 385.79 223.079 386.316 223.029C386.867 222.954 387.331 222.879 387.707 222.804L387.745 230.774C386.817 231.075 385.815 231.313 384.737 231.489C383.659 231.664 382.468 231.752 381.165 231.752C378.784 231.752 376.703 231.363 374.924 230.586C373.169 229.784 371.816 228.506 370.863 226.751C369.911 224.997 369.435 222.691 369.435 219.833V180.281Z" fill="#3DC215"/>
</svg>
